# xmcd CD database file
#
# Track frame offsets:
#	150
#	20587
#	43137
#	57712
#	72137
#	99112
#	121862
#	141850
#	157505
#	185600
#	204750
#	230875
#	242412
#	256262
#
# Disc length: 3547 seconds
#
# Revision: 4
# Processed by: cddbd v1.5.2PL0 Copyright (c) Steve Scherf et al.
# Submitted via: CDex 1.70beta1
#
DISCID=b70dd90e
DTITLE=Tadeusz Nalepa - To Moj Blues vol.I 1979-1985
DYEAR=1991
DGENRE=Blues
TTITLE0=To Moj Blues
TTITLE1=Musisz Walczyc Musisz Wierzyc
TTITLE2=Nauczylem Sie Niewiary
TTITLE3=Zasady Gry
TTITLE4=Na Wysoka Wchodze Gore
TTITLE5=Moj Dom Umiera
TTITLE6=Kim Bez Ciebie Jestem
TTITLE7=Sen Szalenca
TTITLE8=Mesze Dzis  Ciebie Zabic
TTITLE9=Oni Mnie Wyrecza w Tym
TTITLE10=Musisz Klamstwwem Karmic Ich
TTITLE11=Kly Wilczycy
TTITLE12=Pozegnalny Blues
TTITLE13=Idzie Wenus
EXTD=YEAR: 1991
EXTT0=
EXTT1=
EXTT2=
EXTT3=
EXTT4=
EXTT5=
EXTT6=
EXTT7=
EXTT8=
EXTT9=
EXTT10=
EXTT11=
EXTT12=
EXTT13=
PLAYORDER=
